<svg width="48" height="48" viewBox="0 0 48 48" fill="none" xmlns="http://www.w3.org/2000/svg">
<path d="M24 41.3C35.0457 41.3 44 32.3457 44 21.3C44 10.2543 35.0457 1.29999 24 1.29999C12.9543 1.29999 4 10.2543 4 21.3C4 32.3457 12.9543 41.3 24 41.3Z" stroke="#FF7171" stroke-miterlimit="10" stroke-linecap="round" stroke-linejoin="round"/>
<path d="M19 31.3C20.4 30.3 22.1 29.8 24 29.8C25.8 29.8 27.6 30.4 29 31.3" stroke="#FF7171" stroke-miterlimit="10" stroke-linecap="round"/>
<path opacity="0.15" d="M24 46.7C32.8366 46.7 40 46.0284 40 45.2C40 44.3716 32.8366 43.7 24 43.7C15.1634 43.7 8 44.3716 8 45.2C8 46.0284 15.1634 46.7 24 46.7Z" fill="#FF7171"/>
<path d="M14 22.2C14.5523 22.2 15 21.7523 15 21.2C15 20.6477 14.5523 20.2 14 20.2C13.4477 20.2 13 20.6477 13 21.2C13 21.7523 13.4477 22.2 14 22.2Z" fill="#FF7171" stroke="#FF7171" stroke-miterlimit="10" stroke-linecap="round" stroke-linejoin="round"/>
<path d="M33.5 22.2C34.0523 22.2 34.5 21.7523 34.5 21.2C34.5 20.6477 34.0523 20.2 33.5 20.2C32.9477 20.2 32.5 20.6477 32.5 21.2C32.5 21.7523 32.9477 22.2 33.5 22.2Z" fill="#FF7171" stroke="#FF7171" stroke-miterlimit="10" stroke-linecap="round" stroke-linejoin="round"/>
<path d="M36 27.8C37.3807 27.8 38.5 27.1284 38.5 26.3C38.5 25.4716 37.3807 24.8 36 24.8C34.6193 24.8 33.5 25.4716 33.5 26.3C33.5 27.1284 34.6193 27.8 36 27.8Z" fill="#FF7171"/>
<path d="M12 27.8C13.3807 27.8 14.5 27.1284 14.5 26.3C14.5 25.4716 13.3807 24.8 12 24.8C10.6193 24.8 9.5 25.4716 9.5 26.3C9.5 27.1284 10.6193 27.8 12 27.8Z" fill="#FF7171"/>
</svg>
