<svg width="48" height="48" viewBox="0 0 48 48" fill="none" xmlns="http://www.w3.org/2000/svg">
<path opacity="0.15" d="M24 46.5C32.8366 46.5 40 45.8284 40 45C40 44.1716 32.8366 43.5 24 43.5C15.1634 43.5 8 44.1716 8 45C8 45.8284 15.1634 46.5 24 46.5Z" fill="#9CFF88"/>
<path d="M24 41.5C35.0457 41.5 44 32.5457 44 21.5C44 10.4543 35.0457 1.5 24 1.5C12.9543 1.5 4 10.4543 4 21.5C4 32.5457 12.9543 41.5 24 41.5Z" stroke="#9CFF88" stroke-miterlimit="10" stroke-linecap="round" stroke-linejoin="round"/>
<path d="M36 25.25C36.6526 25.25 37.2313 25.4091 37.6387 25.6533C38.051 25.9007 38.25 26.2081 38.25 26.5C38.25 26.7919 38.051 27.0993 37.6387 27.3467C37.2313 27.5909 36.6526 27.75 36 27.75C35.3474 27.75 34.7687 27.5909 34.3613 27.3467C33.949 27.0993 33.75 26.7919 33.75 26.5C33.75 26.2081 33.949 25.9007 34.3613 25.6533C34.7687 25.4091 35.3474 25.25 36 25.25Z" fill="#9CFF88" stroke="#9CFF88" stroke-width="0.5"/>
<path d="M12 25.25C12.6526 25.25 13.2313 25.4091 13.6387 25.6533C14.051 25.9007 14.25 26.2081 14.25 26.5C14.25 26.7919 14.051 27.0993 13.6387 27.3467C13.2313 27.5909 12.6526 27.75 12 27.75C11.3474 27.75 10.7687 27.5909 10.3613 27.3467C9.94897 27.0993 9.75 26.7919 9.75 26.5C9.75 26.2081 9.94897 25.9007 10.3613 25.6533C10.7687 25.4091 11.3474 25.25 12 25.25Z" fill="#9CFF88" stroke="#9CFF88" stroke-width="0.5"/>
<path d="M17.9 29.5C17.6 29.5 17.4 29.6 17.2 29.8C17 30 17 30.3 17 30.5C17.5 33.9 20.5 36.4 24 36.4C27.5 36.4 30.5 33.9 31 30.5C31 30.2 31 30 30.8 29.7C30.6 29.5 30.4 29.4 30.1 29.4H17.9V29.5Z" stroke="#9CFF88" stroke-miterlimit="10" stroke-linecap="round" stroke-linejoin="round"/>
<path d="M29.6001 33.8C28.2001 33 26.2001 32.5 24.0001 32.5C21.8001 32.5 19.8001 33 18.4001 33.8C19.7001 35.5 21.7001 36.5 24.0001 36.5C26.3001 36.5 28.3001 35.5 29.6001 33.8Z" fill="#9CFF88" stroke="#9CFF88" stroke-miterlimit="10" stroke-linecap="round" stroke-linejoin="round"/>
<path d="M10 22.7C10 21.7 10.8 20.9 11.8 20.9C12.8 20.9 13.6 21.7 13.6 22.7" stroke="#9CFF88" stroke-miterlimit="10" stroke-linecap="round" stroke-linejoin="round"/>
<path d="M34.5 22.7C34.5 21.7 35.3 20.9 36.3 20.9C37.3 20.9 38.1 21.7 38.1 22.7" stroke="#9CFF88" stroke-miterlimit="10" stroke-linecap="round" stroke-linejoin="round"/>
</svg>
