<svg width="48" height="48" viewBox="0 0 48 48" fill="none" xmlns="http://www.w3.org/2000/svg">
<path opacity="0.15" d="M24 46.5C32.8366 46.5 40 45.8284 40 45C40 44.1716 32.8366 43.5 24 43.5C15.1634 43.5 8 44.1716 8 45C8 45.8284 15.1634 46.5 24 46.5Z" fill="#998EFF"/>
<path d="M24 41.5C35.0457 41.5 44 32.5457 44 21.5C44 10.4543 35.0457 1.5 24 1.5C12.9543 1.5 4 10.4543 4 21.5C4 32.5457 12.9543 41.5 24 41.5Z" stroke="#998EFF" stroke-miterlimit="10" stroke-linecap="round" stroke-linejoin="round"/>
<path d="M36 28C37.3807 28 38.5 27.3284 38.5 26.5C38.5 25.6716 37.3807 25 36 25C34.6193 25 33.5 25.6716 33.5 26.5C33.5 27.3284 34.6193 28 36 28Z" fill="#998EFF"/>
<path d="M12 28C13.3807 28 14.5 27.3284 14.5 26.5C14.5 25.6716 13.3807 25 12 25C10.6193 25 9.5 25.6716 9.5 26.5C9.5 27.3284 10.6193 28 12 28Z" fill="#998EFF"/>
<path d="M36.3 18L33.1 19.6C32.4 20 32.4 21 33.1 21.4L36.3 23" stroke="#998EFF" stroke-miterlimit="10" stroke-linecap="round" stroke-linejoin="round"/>
<path d="M11.7 18L14.9 19.6C15.6 20 15.6 21 14.9 21.4L11.7 23" stroke="#998EFF" stroke-miterlimit="10" stroke-linecap="round" stroke-linejoin="round"/>
<path d="M13 16C14.1 15.8 15.2 15.5 16.4 14.9C17.5 14.3 18.5 13.6 19.3 12.8" fill="#998EFF"/>
<path d="M13 16C14.1 15.8 15.2 15.5 16.4 14.9C17.5 14.3 18.5 13.6 19.3 12.8" stroke="#998EFF" stroke-miterlimit="10" stroke-linecap="round" stroke-linejoin="round"/>
<path d="M34.8 16C33.7 15.8 32.6 15.5 31.4 14.9C30.3 14.3 29.3 13.6 28.5 12.8" fill="#998EFF"/>
<path d="M34.8 16C33.7 15.8 32.6 15.5 31.4 14.9C30.3 14.3 29.3 13.6 28.5 12.8" stroke="#998EFF" stroke-miterlimit="10" stroke-linecap="round" stroke-linejoin="round"/>
<path d="M19 31.5C20.4 30.5 22.1 30 24 30C25.8 30 27.6 30.6 29 31.5" stroke="#998EFF" stroke-miterlimit="10" stroke-linecap="round"/>
</svg>
