<svg width="48" height="48" viewBox="0 0 48 48" fill="none" xmlns="http://www.w3.org/2000/svg">
<path opacity="0.15" d="M24 46.5C32.8366 46.5 40 45.8284 40 45C40 44.1716 32.8366 43.5 24 43.5C15.1634 43.5 8 44.1716 8 45C8 45.8284 15.1634 46.5 24 46.5Z" fill="#FFC871"/>
<path d="M24 41.2C35.0457 41.2 44 32.2457 44 21.2C44 10.1543 35.0457 1.20001 24 1.20001C12.9543 1.20001 4 10.1543 4 21.2C4 32.2457 12.9543 41.2 24 41.2Z" stroke="#FFC871" stroke-miterlimit="10" stroke-linecap="round" stroke-linejoin="round"/>
<path d="M29 29.1C27.6 30.1 25.8 30.6 24 30.6C22.2 30.6 20.4 30 19 29.1" stroke="#FFC871" stroke-miterlimit="10" stroke-linecap="round"/>
<path d="M13.5 21.2C14.0523 21.2 14.5 20.7523 14.5 20.2C14.5 19.6477 14.0523 19.2 13.5 19.2C12.9477 19.2 12.5 19.6477 12.5 20.2C12.5 20.7523 12.9477 21.2 13.5 21.2Z" fill="#FFC871" stroke="#FFC871" stroke-miterlimit="10" stroke-linecap="round" stroke-linejoin="round"/>
<path d="M34.5 21.2C35.0523 21.2 35.5 20.7523 35.5 20.2C35.5 19.6477 35.0523 19.2 34.5 19.2C33.9477 19.2 33.5 19.6477 33.5 20.2C33.5 20.7523 33.9477 21.2 34.5 21.2Z" fill="#FFC871" stroke="#FFC871" stroke-miterlimit="10" stroke-linecap="round" stroke-linejoin="round"/>
<path d="M36 24.95C36.6526 24.95 37.2313 25.1091 37.6387 25.3533C38.051 25.6007 38.25 25.9081 38.25 26.2C38.25 26.4919 38.051 26.7993 37.6387 27.0467C37.2313 27.2909 36.6526 27.45 36 27.45C35.3474 27.45 34.7687 27.2909 34.3613 27.0467C33.949 26.7993 33.75 26.4919 33.75 26.2C33.75 25.9081 33.949 25.6007 34.3613 25.3533C34.7687 25.1091 35.3474 24.95 36 24.95Z" fill="#FFC871" stroke="#FFC871" stroke-width="0.5"/>
<path d="M12 24.95C12.6526 24.95 13.2313 25.1091 13.6387 25.3533C14.051 25.6007 14.25 25.9081 14.25 26.2C14.25 26.4919 14.051 26.7993 13.6387 27.0467C13.2313 27.2909 12.6526 27.45 12 27.45C11.3474 27.45 10.7687 27.2909 10.3613 27.0467C9.94897 26.7993 9.75 26.4919 9.75 26.2C9.75 25.9081 9.94897 25.6007 10.3613 25.3533C10.7687 25.1091 11.3474 24.95 12 24.95Z" fill="#FFC871" stroke="#FFC871" stroke-width="0.5"/>
</svg>
