<svg width="48" height="48" viewBox="0 0 48 48" fill="none" xmlns="http://www.w3.org/2000/svg">
<path opacity="0.15" d="M24 46.7C32.8366 46.7 40 46.0284 40 45.2C40 44.3716 32.8366 43.7 24 43.7C15.1634 43.7 8 44.3716 8 45.2C8 46.0284 15.1634 46.7 24 46.7Z" fill="#71F6FF"/>
<path d="M24 41.3C35.0457 41.3 44 32.3457 44 21.3C44 10.2543 35.0457 1.29999 24 1.29999C12.9543 1.29999 4 10.2543 4 21.3C4 32.3457 12.9543 41.3 24 41.3Z" stroke="#71F6FF" stroke-miterlimit="10"/>
<path d="M13.5 21.3C14.0523 21.3 14.5 20.8523 14.5 20.3C14.5 19.7477 14.0523 19.3 13.5 19.3C12.9477 19.3 12.5 19.7477 12.5 20.3C12.5 20.8523 12.9477 21.3 13.5 21.3Z" fill="#71F6FF" stroke="#71F6FF" stroke-miterlimit="10"/>
<path d="M34.5 21.3C35.0523 21.3 35.5 20.8523 35.5 20.3C35.5 19.7477 35.0523 19.3 34.5 19.3C33.9477 19.3 33.5 19.7477 33.5 20.3C33.5 20.8523 33.9477 21.3 34.5 21.3Z" fill="#71F6FF" stroke="#71F6FF" stroke-miterlimit="10"/>
<path d="M36 27.8C37.3807 27.8 38.5 27.1284 38.5 26.3C38.5 25.4716 37.3807 24.8 36 24.8C34.6193 24.8 33.5 25.4716 33.5 26.3C33.5 27.1284 34.6193 27.8 36 27.8Z" fill="#71F6FF"/>
<path d="M12 27.8C13.3807 27.8 14.5 27.1284 14.5 26.3C14.5 25.4716 13.3807 24.8 12 24.8C10.6193 24.8 9.5 25.4716 9.5 26.3C9.5 27.1284 10.6193 27.8 12 27.8Z" fill="#71F6FF"/>
<path d="M19 30.8H29H19Z" fill="#71F6FF"/>
<path d="M19 30.8H29" stroke="#71F6FF" stroke-miterlimit="10" stroke-linecap="round"/>
</svg>
