<svg width="48" height="48" viewBox="0 0 48 48" fill="none" xmlns="http://www.w3.org/2000/svg">
<path d="M24 41.5C35.0457 41.5 44 32.5457 44 21.5C44 10.4543 35.0457 1.5 24 1.5C12.9543 1.5 4 10.4543 4 21.5C4 32.5457 12.9543 41.5 24 41.5Z" fill="#9CFF88"/>
<path d="M24 1.5C13 1.5 4 10.5 4 21.5C4 32.5 13 41.5 24 41.5C35 41.5 44 32.5 44 21.5C44 10.5 35 1.5 24 1.5ZM24 38.5C13.9 38.5 5.8 30.3 5.8 20.3C5.8 10.1 13.9 2 24 2C34.1 2 42.2 10.2 42.2 20.2C42.3 30.3 34.1 38.5 24 38.5Z" fill="#8AD77B"/>
<path d="M24 7C27.3137 7 30 6.32843 30 5.5C30 4.67157 27.3137 4 24 4C20.6863 4 18 4.67157 18 5.5C18 6.32843 20.6863 7 24 7Z" fill="#CEFFC4"/>
<path opacity="0.15" d="M24 46.5C32.8366 46.5 40 45.8284 40 45C40 44.1716 32.8366 43.5 24 43.5C15.1634 43.5 8 44.1716 8 45C8 45.8284 15.1634 46.5 24 46.5Z" fill="#9CFF88"/>
<path d="M24 41.5C35.0457 41.5 44 32.5457 44 21.5C44 10.4543 35.0457 1.5 24 1.5C12.9543 1.5 4 10.4543 4 21.5C4 32.5457 12.9543 41.5 24 41.5Z" stroke="#6A587F" stroke-miterlimit="10" stroke-linecap="round" stroke-linejoin="round"/>
<path d="M36 28C37.3807 28 38.5 27.3284 38.5 26.5C38.5 25.6716 37.3807 25 36 25C34.6193 25 33.5 25.6716 33.5 26.5C33.5 27.3284 34.6193 28 36 28Z" fill="#F0969B"/>
<path d="M12 28C13.3807 28 14.5 27.3284 14.5 26.5C14.5 25.6716 13.3807 25 12 25C10.6193 25 9.5 25.6716 9.5 26.5C9.5 27.3284 10.6193 28 12 28Z" fill="#F0969B"/>
<path d="M17.9 29.5C17.6 29.5 17.4 29.6 17.2 29.8C17 30 17 30.3 17 30.5C17.5 33.9 20.5 36.4 24 36.4C27.5 36.4 30.5 33.9 31 30.5C31 30.2 31 30 30.8 29.7C30.6 29.5 30.4 29.4 30.1 29.4H17.9V29.5Z" fill="#F3C2CC" stroke="#3B314E" stroke-miterlimit="10" stroke-linecap="round" stroke-linejoin="round"/>
<path d="M29.6001 33.8C28.2001 33 26.2001 32.5 24.0001 32.5C21.8001 32.5 19.8001 33 18.4001 33.8C19.7001 35.5 21.7001 36.5 24.0001 36.5C26.3001 36.5 28.3001 35.5 29.6001 33.8Z" fill="#F0969B" stroke="#3B314E" stroke-miterlimit="10" stroke-linecap="round" stroke-linejoin="round"/>
<path d="M10 22.7C10 21.7 10.8 20.9 11.8 20.9C12.8 20.9 13.6 21.7 13.6 22.7" stroke="#3B314E" stroke-miterlimit="10" stroke-linecap="round" stroke-linejoin="round"/>
<path d="M34.5 22.7C34.5 21.7 35.3 20.9 36.3 20.9C37.3 20.9 38.1 21.7 38.1 22.7" stroke="#3B314E" stroke-miterlimit="10" stroke-linecap="round" stroke-linejoin="round"/>
</svg>
