<svg width="48" height="48" viewBox="0 0 48 48" fill="none" xmlns="http://www.w3.org/2000/svg">
<path d="M24 41.2C35.0457 41.2 44 32.2457 44 21.2C44 10.1543 35.0457 1.20001 24 1.20001C12.9543 1.20001 4 10.1543 4 21.2C4 32.2457 12.9543 41.2 24 41.2Z" fill="#FFC871"/>
<path d="M24 1.20001C13 1.20001 4 10.2 4 21.2C4 32.2 13 41.2 24 41.2C35 41.2 44 32.2 44 21.2C44 10.2 35 1.20001 24 1.20001ZM24 38.2C13.9 38.2 5.8 30 5.8 19.9C5.8 9.80001 13.9 1.70001 24 1.70001C34.1 1.70001 42.2 9.90001 42.2 19.9C42.2 30 34.1 38.2 24 38.2Z" fill="#E2B05F"/>
<path opacity="0.15" d="M24 46.5C32.8366 46.5 40 45.8284 40 45C40 44.1716 32.8366 43.5 24 43.5C15.1634 43.5 8 44.1716 8 45C8 45.8284 15.1634 46.5 24 46.5Z" fill="#FFC871"/>
<path d="M24 41.2C35.0457 41.2 44 32.2457 44 21.2C44 10.1543 35.0457 1.20001 24 1.20001C12.9543 1.20001 4 10.1543 4 21.2C4 32.2457 12.9543 41.2 24 41.2Z" stroke="#6A587F" stroke-miterlimit="10" stroke-linecap="round" stroke-linejoin="round"/>
<path d="M29 29.1C27.6 30.1 25.8 30.6 24 30.6C22.2 30.6 20.4 30 19 29.1" stroke="#3B314E" stroke-miterlimit="10" stroke-linecap="round"/>
<path d="M13.5 21.2C14.0523 21.2 14.5 20.7523 14.5 20.2C14.5 19.6477 14.0523 19.2 13.5 19.2C12.9477 19.2 12.5 19.6477 12.5 20.2C12.5 20.7523 12.9477 21.2 13.5 21.2Z" fill="#3B314E" stroke="#3B314E" stroke-miterlimit="10" stroke-linecap="round" stroke-linejoin="round"/>
<path d="M34.5 21.2C35.0523 21.2 35.5 20.7523 35.5 20.2C35.5 19.6477 35.0523 19.2 34.5 19.2C33.9477 19.2 33.5 19.6477 33.5 20.2C33.5 20.7523 33.9477 21.2 34.5 21.2Z" fill="#3B314E" stroke="#3B314E" stroke-miterlimit="10" stroke-linecap="round" stroke-linejoin="round"/>
<path d="M36 27.7C37.3807 27.7 38.5 27.0284 38.5 26.2C38.5 25.3716 37.3807 24.7 36 24.7C34.6193 24.7 33.5 25.3716 33.5 26.2C33.5 27.0284 34.6193 27.7 36 27.7Z" fill="#FFA46C"/>
<path d="M12 27.7C13.3807 27.7 14.5 27.0284 14.5 26.2C14.5 25.3716 13.3807 24.7 12 24.7C10.6193 24.7 9.5 25.3716 9.5 26.2C9.5 27.0284 10.6193 27.7 12 27.7Z" fill="#FFA46C"/>
<path d="M24 6.70001C27.3137 6.70001 30 6.02844 30 5.20001C30 4.37158 27.3137 3.70001 24 3.70001C20.6863 3.70001 18 4.37158 18 5.20001C18 6.02844 20.6863 6.70001 24 6.70001Z" fill="#FFD99D"/>
</svg>
